<svg xmlns="http://www.w3.org/2000/svg" viewBox="0 0 48 48" width="48" height="48">
  <!-- Background circle with gradient -->
  <defs>
    <linearGradient id="bgGrad" x1="0%" y1="0%" x2="100%" y2="100%">
      <stop offset="0%" style="stop-color:#14b8a6;stop-opacity:1" />
      <stop offset="100%" style="stop-color:#2dd4bf;stop-opacity:1" />
    </linearGradient>
  </defs>
  <circle cx="24" cy="24" r="22" fill="url(#bgGrad)"/>
  <!-- Spa/Lotus leaf icon - simplified wellness symbol -->
  <path fill="#ffffff" d="M24 8c-2 4-6 8-6 14 0 4 2.5 7 6 8 3.5-1 6-4 6-8 0-6-4-10-6-14z"/>
  <path fill="#ffffff" opacity="0.9" d="M16 18c0 0 2 6 8 10-4-1-7-4-8-10z"/>
  <path fill="#ffffff" opacity="0.9" d="M32 18c0 0-2 6-8 10 4-1 7-4 8-10z"/>
  <ellipse cx="24" cy="36" rx="6" ry="2" fill="#ffffff" opacity="0.7"/>
</svg>
